<svg width="40" height="40" viewBox="0 0 40 40" fill="none" xmlns="http://www.w3.org/2000/svg">
<circle cx="20" cy="20" r="20" fill="#E42313" fill-opacity="0.1"/>
<path fill-rule="evenodd" clip-rule="evenodd" d="M20 30C23.0853 30 25.8442 28.6028 27.6785 26.4066C27.3936 26.2864 27.1269 25.9748 26.8907 25.5124C25.2737 27.5293 22.7891 28.8207 20.0028 28.8207C15.1297 28.8207 11.1793 24.8703 11.1793 19.9972C11.1793 15.1241 15.1297 11.1736 20.0028 11.1736C22.6898 11.1736 25.0962 12.3746 26.7145 14.2691C26.9037 13.806 27.1179 13.4472 27.3493 13.2185C25.5222 11.2394 22.9058 10 20 10C14.4772 10 10 14.4772 10 20C10 25.5228 14.4772 30 20 30ZM20 19.4113V20.5878H30V19.4113H20Z" fill="#E42313"/>
</svg>
