<svg width="36" height="39" viewBox="0 0 36 39" fill="none" xmlns="http://www.w3.org/2000/svg">
<path d="M18.0607 11.995C18.0607 11.7008 17.8285 11.4624 17.5421 11.4624C17.2557 11.4624 17.0234 11.7008 17.0234 11.995C17.0234 12.5652 17.3391 13.487 19.2948 13.6403V14.9319C19.2948 15.2635 19.5561 15.5319 19.879 15.5319C20.202 15.5319 20.4633 15.2635 20.4633 14.9319V13.6275C21.9134 13.4522 22.7347 12.6052 22.7347 11.2374C22.7347 10.229 22.319 9.0481 20.4633 8.8446V6.50702C20.8997 6.57517 21.1053 6.71309 21.1953 6.80584C21.2997 6.91311 21.3083 7.01384 21.3089 7.03496C21.2906 7.31909 21.4943 7.56986 21.7727 7.59974C22.0631 7.62667 22.3124 7.41754 22.3421 7.12519C22.3478 7.06951 22.3855 6.56977 21.9838 6.1122C21.6574 5.7406 21.1432 5.51868 20.4633 5.43853V4.13314C20.4633 3.80149 20.202 3.5332 19.879 3.5332C19.5561 3.5332 19.2948 3.80149 19.2948 4.13314V5.42977C17.3014 5.61929 17.0234 6.79204 17.0234 7.82765C17.0234 9.03784 17.7898 9.71324 19.2948 9.84757V12.5719C18.6435 12.5107 18.0607 12.3391 18.0607 11.995ZM21.6974 11.2374C21.6974 11.5648 21.6963 12.368 20.4633 12.5582V9.91344C21.3364 10.025 21.6974 10.4219 21.6974 11.2374ZM18.0607 7.82765C18.0607 7.23935 18.0617 6.63378 19.2948 6.49526V8.78376C18.0617 8.65928 18.0607 8.12924 18.0607 7.82765Z" fill="white"/>
<path d="M34.4733 23.6536C33.9586 22.8826 33.0263 22.0676 32.0844 22.3167C31.0574 22.5874 30.1366 23.6477 29.0702 24.8751C27.807 26.3293 26.376 27.9773 24.5811 28.5122C21.0882 29.5528 16.6909 28.7958 15.3222 28.5134C15.1761 28.2738 15.2069 27.4987 15.341 27.3499C15.6388 27.2386 16.3412 27.3218 17.0817 27.4102C18.3558 27.5614 20.1017 27.7688 22.0878 27.3757C22.5345 27.2878 23.0058 26.849 22.991 25.8805C22.9704 24.5951 22.0267 22.636 19.9916 22.305C19.0222 22.1474 16.4479 21.7278 13.0069 21.5246C11.6318 21.4373 9.3662 23.2213 8.6068 23.8446H0.594527C0.266479 23.8446 0 24.1182 0 24.4551V32.1927C0 32.5296 0.266479 32.8032 0.594527 32.8032H6.53454C7.42289 33.5127 11.5697 36.7461 14.2136 37.4275C15.9464 37.8739 18.1384 38.342 20.3333 38.342C21.9485 38.342 23.5655 38.0883 25.0022 37.3865C28.43 35.7109 32.1643 30.2189 34.1704 27.2685C34.4077 26.9204 34.6165 26.6123 34.7939 26.358C35.3525 25.556 34.9948 24.4352 34.4733 23.6536ZM1.18905 25.0656H5.79798V31.5822H1.18905V25.0656ZM33.8274 25.6479C33.6477 25.9057 33.436 26.2174 33.1964 26.5701C31.3912 29.2241 27.6352 34.7477 24.4915 36.2851C21.4482 37.7696 17.3334 36.9729 14.5029 36.244C11.8412 35.558 7.15641 31.7533 7.10967 31.7152C7.09951 31.7069 7.08659 31.7037 7.07602 31.6961V25.0656H8.8173C8.95483 25.0656 9.08833 25.0164 9.19443 24.9267C10.3002 23.994 12.1938 22.7256 12.9384 22.7432C16.3201 22.9429 18.8522 23.3554 19.8055 23.5107C20.8845 23.6858 21.3866 24.509 21.5896 24.9842C21.8361 25.5606 21.8247 26.027 21.7722 26.1946C20.0018 26.5296 18.4614 26.3451 17.2181 26.1981C16.2185 26.0797 15.4979 25.9936 14.9353 26.2027C14.2432 26.4611 13.9922 27.3979 14.0504 28.2123C14.1092 29.0267 14.4715 29.5815 15.0198 29.6963C16.3771 29.9805 21.1024 30.8194 24.912 29.684C27.0356 29.0518 28.6554 27.1865 29.9568 25.6878C30.8548 24.6537 31.7033 23.6771 32.3794 23.499C32.579 23.448 33.0726 23.7128 33.4925 24.3432C33.8736 24.9144 33.9615 25.4552 33.8274 25.6479Z" fill="white"/>
<path d="M19.873 18.4814C24.7131 18.4814 28.6367 14.4524 28.6367 9.48241C28.6367 4.51243 24.7131 0.483398 19.873 0.483398C15.033 0.483398 11.1094 4.51243 11.1094 9.48241C11.1094 14.4524 15.033 18.4814 19.873 18.4814ZM19.873 1.68327C24.061 1.68327 27.4682 5.18196 27.4682 9.48241C27.4682 13.7829 24.061 17.2815 19.873 17.2815C15.6851 17.2815 12.2779 13.7829 12.2779 9.48241C12.2779 5.18196 15.6851 1.68327 19.873 1.68327Z" fill="white"/>
</svg>
